# This file uses centimeters as units for non-parametric coordinates.

mtllib ComputerMouse.mtl
g default
v 0.130670 1.312107 0.762996
v 0.130670 1.182977 0.601995
v 0.130670 0.948027 1.268689
v 0.130670 1.145973 1.234420
v 0.130670 1.296780 1.024955
v -0.130670 1.312107 0.762996
v -0.130670 1.182977 0.601995
v -0.130670 0.948027 1.268689
v -0.130670 1.145973 1.234420
v -0.130670 1.296780 1.024955
v 0.130670 1.065502 0.935342
v -0.130670 1.065502 0.935342
v 0.000000 1.335239 0.697359
v 0.000000 1.296780 1.024955
v 0.000000 1.120670 1.306219
v -0.000000 0.922725 1.340488
v 0.000000 1.206109 0.536358
v -0.972075 0.000000 1.945549
v -1.021332 0.830022 1.537035
v -0.937469 1.110242 -1.550240
v -1.057352 0.000000 -1.821925
v -1.019798 1.305919 0.338300
v -1.094238 0.000000 -0.213421
v -1.057352 0.591503 -1.991045
v -0.973096 0.396372 1.996601
v -0.262754 1.068158 1.406114
v -1.138491 0.430544 1.376836
v -1.101188 0.000000 1.377581
v -0.162042 1.040643 1.289656
v -1.038417 1.346392 -0.785659
v -1.210941 0.794012 -0.711806
v -0.342805 1.432832 0.374322
v -1.020671 1.296495 0.391052
v -0.154288 1.376670 0.410308
v -0.322249 1.422874 0.410456
v -1.172937 0.695108 0.335092
v -1.036575 1.262147 0.377059
v -0.318127 1.384717 0.393254
v -0.969036 0.441425 1.982368
v -1.134408 0.478020 1.370837
v -1.167716 0.746850 0.371606
v -1.136289 0.747837 0.356006
v -1.166718 0.752955 0.315640
v -1.205035 0.849100 -0.711971
v -1.051128 0.638208 -1.967996
v -0.944993 0.415844 1.945966
v -1.105993 0.451437 1.373316
v -1.138591 0.719943 0.335782
v -1.175482 0.819371 -0.711903
v -1.025781 0.611944 -1.941318
v -0.021573 0.830320 1.800919
v -0.021261 1.035906 1.504267
v 0.000000 0.394483 2.106078
v 0.000000 0.417668 2.054266
v -0.019870 1.447419 0.109349
v -0.021261 1.022768 1.359742
v -0.021137 1.371142 0.323960
v 0.000000 1.408267 0.093587
v -0.021597 0.445866 2.089838
v 0.000000 1.000324 1.504267
v 0.000000 0.794739 1.800919
v 0.000000 0.000000 2.057507
v 0.000000 0.000000 1.461354
v 0.000000 0.000000 -0.213162
v 0.000000 0.000000 -1.921247
v 0.000000 0.621671 -2.106078
v 0.000000 0.644691 -2.054871
v 0.000000 0.672772 -2.080506
v 0.000000 1.223535 -1.686819
v 0.000000 1.469962 -0.782906
v 0.000000 1.447532 0.026980
v -0.000000 1.335560 0.323960
v 0.000000 0.987186 1.359742
v 0.972075 0.000000 1.945549
v 1.021332 0.830022 1.537035
v 0.937469 1.110242 -1.646329
v 1.057352 0.000000 -1.821925
v 1.019798 1.305919 0.338300
v 1.094238 0.000000 -0.213421
v 1.057352 0.591503 -1.991045
v 0.973096 0.396372 1.996601
v 0.262754 1.068158 1.406114
v 1.138491 0.430544 1.376836
v 1.101188 0.000000 1.377581
v 0.162042 1.040643 1.289656
v 1.038417 1.328419 -0.785659
v 1.210941 0.794012 -0.711806
v 0.342805 1.432832 0.374322
v 1.020671 1.296495 0.391052
v 0.154288 1.376670 0.410308
v 0.322249 1.422874 0.410456
v 1.172937 0.695108 0.335092
v 0.993201 1.262147 0.377059
v 0.318127 1.384717 0.393254
v 0.969036 0.441425 1.982368
v 1.134408 0.478020 1.370837
v 1.167716 0.746850 0.371606
v 1.136289 0.747837 0.356006
v 1.166718 0.752955 0.315640
v 1.205035 0.849100 -0.711971
v 1.051128 0.638208 -1.967996
v 0.944993 0.415844 1.945966
v 1.105993 0.451437 1.373316
v 1.138591 0.719943 0.335782
v 1.175482 0.819371 -0.711903
v 1.025781 0.611944 -1.941318
v 0.021573 0.830320 1.800919
v 0.021261 1.035906 1.504267
v 0.019870 1.447419 0.109349
v 0.021261 1.022768 1.359742
v 0.021137 1.371142 0.323960
v 0.021597 0.445866 2.089838
vt 0.333832 0.835381
vt 0.361832 0.826415
vt 0.370205 0.853359
vt 0.343436 0.853190
vt 0.241534 0.825065
vt 0.268142 0.835122
vt 0.257811 0.852780
vt 0.232188 0.852552
vt 0.300794 0.835496
vt 0.300774 0.853037
vt 0.302008 0.799030
vt 0.333667 0.870947
vt 0.361549 0.880166
vt 0.301432 0.907036
vt 0.241149 0.880229
vt 0.267948 0.870544
vt 0.300630 0.870576
vt 0.964636 0.848397
vt 0.905283 0.849370
vt 0.901516 0.674177
vt 0.984014 0.679738
vt 0.892880 0.511539
vt 0.878999 0.406799
vt 0.909947 0.322623
vt 0.967772 0.507425
vt 0.047364 0.100173
vt 0.130498 0.126052
vt 0.127034 0.352624
vt 0.014193 0.281956
vt 0.802747 0.678384
vt 0.805591 0.670879
vt 0.901096 0.664936
vt 0.906319 0.671889
vt 0.908457 0.934040
vt 0.145754 0.654155
vt 0.090128 0.668783
vt 0.069959 0.578574
vt 0.129995 0.573973
vt 0.751821 0.630134
vt 0.753108 0.519352
vt 0.982718 0.667135
vt 0.028979 0.430817
vt 0.984195 0.674435
vt 0.777045 0.689085
vt 0.801613 0.684445
vt 0.793812 0.827263
vt 0.777363 0.813055
vt 0.916005 0.933230
vt 0.969212 0.851391
vt 0.991135 0.676297
vt 0.989008 0.673593
vt 0.988331 0.671074
vt 0.973498 0.505748
vt 0.913656 0.318775
vt 0.082826 0.664110
vt 0.064800 0.580389
vt 0.023039 0.431587
vt 0.064491 0.578965
vt 0.008052 0.282416
vt 0.040647 0.105887
vt 0.008137 0.280806
vt 0.755444 0.894572
vt 0.757000 0.964028
vt 0.749332 0.964293
vt 0.750553 0.898275
vt 0.751604 0.846380
vt 0.757446 0.844175
vt 0.751485 0.824364
vt 0.757417 0.823252
vt 0.751613 0.844752
vt 0.753031 0.394005
vt 0.751195 0.297771
vt 0.751072 0.292380
vt 0.129950 0.029811
vt 0.277642 0.015882
vt 0.277703 0.023751
vt 0.126929 0.038108
vt 0.278410 0.113893
vt 0.280226 0.351201
vt 0.282131 0.583549
vt 0.282850 0.665504
vt 0.283319 0.720759
vt 0.143199 0.711678
vt 0.751611 0.641970
vt 0.755239 0.648199
vt 0.757128 0.679506
vt 0.751574 0.681484
vt 0.751644 0.681375
vt 0.906426 0.941204
vt 0.755377 0.971232
vt 0.283386 0.728688
vt 0.145917 0.719895
vt 0.541675 0.855308
vt 0.521321 0.693071
vt 0.604214 0.684281
vt 0.600240 0.853310
vt 0.610758 0.515360
vt 0.535133 0.513735
vt 0.593338 0.328029
vt 0.628807 0.399522
vt 0.493937 0.574980
vt 0.433982 0.571411
vt 0.433377 0.350213
vt 0.532856 0.426788
vt 0.544759 0.277862
vt 0.509433 0.096754
vt 0.426518 0.123753
vt 0.700699 0.681338
vt 0.603649 0.678488
vt 0.604739 0.669832
vt 0.697881 0.673832
vt 0.428686 0.035757
vt 0.419794 0.651856
vt 0.423286 0.709332
vt 0.597679 0.933926
vt 0.745781 0.894542
vt 0.741707 0.963792
vt 0.709423 0.828531
vt 0.745759 0.844363
vt 0.475910 0.665245
vt 0.725659 0.813879
vt 0.701928 0.687349
vt 0.726400 0.690467
vt 0.522654 0.680332
vt 0.521466 0.687814
vt 0.748062 0.648370
vt 0.746112 0.679743
vt 0.594585 0.939415
vt 0.743104 0.971007
vt 0.537137 0.858345
vt 0.514086 0.689973
vt 0.516691 0.686798
vt 0.517189 0.684534
vt 0.529372 0.512164
vt 0.589528 0.324250
vt 0.420705 0.717592
vt 0.499307 0.575788
vt 0.483123 0.660425
vt 0.538810 0.427457
vt 0.550903 0.277352
vt 0.516226 0.102376
vt 0.425535 0.027509
vt 0.745547 0.823439
vt 0.751641 0.681464
vn 0.412162 0.710748 -0.570053
vn 0.412162 0.710748 -0.570053
vn 0.000000 0.780090 -0.625668
vn 0.000000 0.780090 -0.625668
vn 0.453177 0.152065 0.878355
vn 0.453177 0.152065 0.878355
vn 0.000000 0.170587 0.985343
vn 0.000000 0.170587 0.985343
vn 0.071558 0.830101 0.553002
vn 0.071558 0.830101 0.553002
vn 0.000000 0.832235 0.554423
vn 0.000000 0.832235 0.554423
vn 0.065186 0.993746 0.090662
vn 0.065186 0.993746 0.090662
vn 0.000000 0.995864 0.090855
vn 0.000000 0.995864 0.090855
vn 1.000000 0.000000 0.000000
vn 1.000000 0.000000 0.000000
vn 1.000000 0.000000 0.000000
vn 1.000000 0.000000 0.000000
vn 1.000000 0.000000 0.000000
vn 1.000000 0.000000 0.000000
vn -1.000000 0.000000 0.000000
vn -1.000000 0.000000 0.000000
vn -1.000000 0.000000 0.000000
vn -1.000000 0.000000 0.000000
vn -1.000000 0.000000 0.000000
vn -1.000000 0.000000 0.000000
vn -0.065186 0.993746 0.090662
vn -0.065186 0.993746 0.090662
vn -0.071558 0.830101 0.553002
vn -0.071558 0.830101 0.553002
vn -0.453176 0.152065 0.878355
vn -0.453176 0.152065 0.878355
vn -0.412162 0.710748 -0.570053
vn -0.412162 0.710748 -0.570053
vn -0.961179 0.256204 0.102445
vn -0.961179 0.256204 0.102445
vn -0.961179 0.256204 0.102445
vn -0.961179 0.256204 0.102445
vn -0.922973 0.334461 -0.190410
vn -0.922973 0.334461 -0.190410
vn -0.922973 0.334461 -0.190410
vn -0.922973 0.334461 -0.190410
vn -0.992111 -0.111332 -0.057632
vn -0.992111 -0.111332 -0.057632
vn -0.992111 -0.111332 -0.057632
vn -0.992111 -0.111332 -0.057632
vn -0.124572 0.519886 0.845104
vn -0.124572 0.519886 0.845104
vn -0.124572 0.519886 0.845104
vn -0.124572 0.519886 0.845104
vn -0.947120 0.178286 0.266792
vn -0.947120 0.178286 0.266792
vn -0.947120 0.178286 0.266792
vn -0.969289 -0.059440 0.238633
vn -0.969289 -0.059440 0.238633
vn -0.969289 -0.059440 0.238633
vn -0.969289 -0.059440 0.238633
vn -0.014813 0.999507 0.027682
vn -0.014813 0.999507 0.027682
vn -0.014813 0.999507 0.027682
vn -0.956719 0.287731 0.043588
vn -0.956719 0.287731 0.043588
vn -0.956719 0.287731 0.043588
vn -0.956719 0.287731 0.043588
vn -0.991121 -0.130850 0.023617
vn -0.991121 -0.130850 0.023617
vn -0.991121 -0.130850 0.023617
vn -0.994728 -0.102551 0.000084
vn -0.994728 -0.102551 0.000084
vn -0.994728 -0.102551 0.000084
vn -0.994728 -0.102551 0.000084
vn -0.757306 0.199312 -0.621902
vn -0.757306 0.199312 -0.621902
vn -0.757306 0.199312 -0.621902
vn -0.757306 0.199312 -0.621902
vn 0.374750 0.873276 0.311370
vn 0.374750 0.873276 0.311370
vn 0.374750 0.873276 0.311370
vn 0.374750 0.873276 0.311370
vn -0.935639 0.204430 0.287731
vn -0.935639 0.204430 0.287731
vn -0.935638 0.204430 0.287731
vn -0.935639 0.204430 0.287731
vn -0.047523 0.401279 -0.914722
vn -0.047523 0.401279 -0.914722
vn -0.047523 0.401279 -0.914722
vn -0.047523 0.401279 -0.914722
vn -0.653526 -0.744819 0.134713
vn -0.653526 -0.744819 0.134713
vn -0.653526 -0.744819 0.134713
vn -0.653526 -0.744819 0.134713
vn -0.719383 -0.677023 -0.155334
vn -0.719383 -0.677023 -0.155334
vn -0.719383 -0.677023 -0.155334
vn -0.719383 -0.677023 -0.155334
vn -0.381586 0.562996 -0.733095
vn -0.381586 0.562996 -0.733095
vn -0.381586 0.562996 -0.733095
vn -0.773717 -0.328783 0.541538
vn -0.773717 -0.328783 0.541538
vn -0.773717 -0.328783 0.541538
vn -0.729533 -0.682894 -0.037917
vn -0.729533 -0.682894 -0.037917
vn -0.729533 -0.682894 -0.037917
vn -0.729533 -0.682894 -0.037917
vn -0.720538 -0.692826 0.028591
vn -0.720538 -0.692826 0.028591
vn -0.720538 -0.692826 0.028591
vn -0.720538 -0.692826 0.028591
vn -0.435797 0.883654 0.170989
vn -0.435797 0.883654 0.170989
vn -0.435797 0.883654 0.170989
vn -0.435797 0.883654 0.170989
vn -0.543664 0.808626 0.224840
vn -0.543664 0.808626 0.224840
vn -0.543664 0.808626 0.224840
vn -0.543664 0.808626 0.224840
vn -0.581579 0.807654 0.097270
vn -0.581579 0.807654 0.097270
vn -0.581579 0.807654 0.097270
vn -0.581579 0.807654 0.097270
vn -0.449652 0.871268 -0.196734
vn -0.449652 0.871268 -0.196734
vn -0.449652 0.871269 -0.196734
vn -0.449652 0.871269 -0.196734
vn 0.836760 0.317599 0.446053
vn 0.836760 0.317599 0.446053
vn 0.836760 0.317599 0.446053
vn 0.836760 0.317599 0.446053
vn 0.806675 0.485551 0.336921
vn 0.806675 0.485551 0.336920
vn 0.806675 0.485551 0.336920
vn 0.806675 0.485551 0.336920
vn 0.857498 0.512375 -0.046577
vn 0.857498 0.512375 -0.046577
vn 0.857498 0.512375 -0.046577
vn 0.857498 0.512375 -0.046577
vn -0.133026 0.949912 -0.282791
vn -0.133026 0.949912 -0.282791
vn -0.133026 0.949912 -0.282791
vn -0.133026 0.949912 -0.282791
vn -0.142610 0.624842 -0.767617
vn -0.142610 0.624842 -0.767617
vn -0.142610 0.624842 -0.767617
vn -0.142610 0.624842 -0.767617
vn -0.054056 -0.705462 -0.706683
vn -0.054056 -0.705462 -0.706683
vn -0.054056 -0.705462 -0.706683
vn -0.054056 -0.705462 -0.706683
vn -0.069187 0.923950 -0.376203
vn -0.069187 0.923950 -0.376203
vn -0.069187 0.923950 -0.376203
vn -0.069187 0.923950 -0.376203
vn -0.092908 -0.278869 -0.955825
vn -0.092908 -0.278869 -0.955824
vn -0.092908 -0.278869 -0.955825
vn -0.092908 -0.278869 -0.955824
vn 0.000000 -1.000000 0.000000
vn 0.000000 -1.000000 0.000000
vn 0.000000 -1.000000 0.000000
vn 0.000000 -1.000000 0.000000
vn 0.000000 -1.000000 0.000000
vn 0.000000 -1.000000 0.000000
vn 0.000000 -1.000000 0.000000
vn 0.000000 -1.000000 0.000000
vn 0.000000 -1.000000 0.000000
vn 0.000000 -1.000000 0.000000
vn 0.000000 -1.000000 0.000000
vn 0.000000 -1.000000 0.000000
vn -0.112349 -0.124335 0.985859
vn -0.112349 -0.124335 0.985859
vn -0.112349 -0.124335 0.985859
vn -0.112349 -0.124335 0.985859
vn 0.879608 0.450328 0.153278
vn 0.879608 0.450328 0.153278
vn 0.879608 0.450328 0.153278
vn 0.879608 0.450328 0.153278
vn 0.846625 0.504408 0.169702
vn 0.846625 0.504408 0.169702
vn 0.846625 0.504408 0.169702
vn 0.846625 0.504408 0.169702
vn 0.495852 0.674947 0.546423
vn 0.495852 0.674947 0.546423
vn 0.495852 0.674947 0.546423
vn 0.495852 0.674947 0.546423
vn -0.139470 0.676972 0.722673
vn -0.139470 0.676972 0.722673
vn -0.139470 0.676972 0.722673
vn -0.139470 0.676972 0.722673
vn -0.146905 0.805055 0.574722
vn -0.146905 0.805055 0.574722
vn -0.146905 0.805055 0.574722
vn -0.146905 0.805055 0.574722
vn 0.167602 0.981895 -0.088271
vn 0.167602 0.981895 -0.088271
vn 0.167602 0.981895 -0.088271
vn 0.167602 0.981895 -0.088271
vn 0.099935 0.936831 0.335202
vn 0.099935 0.936831 0.335202
vn 0.099935 0.936831 0.335202
vn 0.099935 0.936831 0.335202
vn 0.250289 0.911605 0.326087
vn 0.250289 0.911605 0.326087
vn 0.250289 0.911605 0.326087
vn 0.250289 0.911605 0.326087
vn -0.696415 0.087587 -0.712274
vn -0.696415 0.087587 -0.712274
vn -0.696415 0.087587 -0.712274
vn -0.696415 0.087587 -0.712274
vn -0.062471 -0.818104 0.571667
vn -0.062471 -0.818104 0.571667
vn -0.062471 -0.818104 0.571667
vn -0.062471 -0.818104 0.571667
vn -0.042444 0.926416 0.374102
vn -0.042444 0.926416 0.374102
vn -0.042444 0.926416 0.374102
vn -0.042444 0.926416 0.374102
vn 0.961179 0.256204 0.102445
vn 0.961179 0.256204 0.102445
vn 0.961179 0.256204 0.102445
vn 0.961179 0.256204 0.102445
vn 0.930636 0.320305 -0.176979
vn 0.930636 0.320305 -0.176979
vn 0.930636 0.320305 -0.176979
vn 0.930636 0.320305 -0.176979
vn 0.994728 -0.102550 0.000084
vn 0.994728 -0.102550 0.000084
vn 0.994728 -0.102550 0.000084
vn 0.994728 -0.102550 0.000084
vn 0.991121 -0.130850 0.023617
vn 0.991121 -0.130850 0.023617
vn 0.991121 -0.130850 0.023617
vn 0.992111 -0.111332 -0.057632
vn 0.992111 -0.111332 -0.057632
vn 0.992111 -0.111332 -0.057632
vn 0.992111 -0.111332 -0.057632
vn 0.121817 0.478128 0.869802
vn 0.121817 0.478128 0.869802
vn 0.121817 0.478128 0.869802
vn 0.121817 0.478128 0.869802
vn 0.014813 0.999507 0.027682
vn 0.014813 0.999507 0.027682
vn 0.014813 0.999507 0.027682
vn 0.128407 0.957203 -0.259372
vn 0.128407 0.957203 -0.259372
vn 0.128407 0.957203 -0.259372
vn 0.128407 0.957203 -0.259372
vn 0.105232 0.577781 -0.809380
vn 0.105232 0.577781 -0.809380
vn 0.105232 0.577781 -0.809380
vn 0.105232 0.577781 -0.809379
vn 0.092908 -0.278869 -0.955825
vn 0.092908 -0.278869 -0.955824
vn 0.092908 -0.278869 -0.955825
vn 0.092908 -0.278869 -0.955824
vn 0.000000 -1.000000 0.000000
vn 0.000000 -1.000000 0.000000
vn 0.000000 -1.000000 0.000000
vn 0.000000 -1.000000 0.000000
vn 0.000000 -1.000000 0.000000
vn 0.000000 -1.000000 0.000000
vn 0.000000 -1.000000 0.000000
vn 0.000000 -1.000000 0.000000
vn 0.112349 -0.124335 0.985859
vn 0.112349 -0.124335 0.985859
vn 0.112349 -0.124335 0.985859
vn 0.112349 -0.124335 0.985859
vn 0.139470 0.676972 0.722673
vn 0.139470 0.676972 0.722673
vn 0.139470 0.676972 0.722673
vn 0.139470 0.676972 0.722673
vn 0.146905 0.805055 0.574722
vn 0.146905 0.805055 0.574722
vn 0.146905 0.805055 0.574722
vn 0.146905 0.805055 0.574722
vn 0.947120 0.178286 0.266792
vn 0.947120 0.178286 0.266792
vn 0.947120 0.178286 0.266792
vn 0.969289 -0.059440 0.238633
vn 0.969289 -0.059440 0.238633
vn 0.969289 -0.059440 0.238633
vn 0.969289 -0.059440 0.238633
vn 0.000000 -1.000000 0.000000
vn 0.000000 -1.000000 0.000000
vn 0.000000 -1.000000 0.000000
vn 0.000000 -1.000000 0.000000
vn -0.374750 0.873276 0.311370
vn -0.374750 0.873276 0.311370
vn -0.374750 0.873276 0.311370
vn -0.374750 0.873276 0.311370
vn 0.955447 0.292247 0.041399
vn 0.955447 0.292247 0.041399
vn 0.955447 0.292247 0.041399
vn 0.955447 0.292247 0.041399
vn -0.495852 0.674947 0.546423
vn -0.495852 0.674947 0.546423
vn -0.495852 0.674947 0.546423
vn -0.495852 0.674947 0.546423
vn 0.380820 0.138645 -0.914196
vn 0.380820 0.138645 -0.914196
vn 0.380820 0.138645 -0.914196
vn 0.380820 0.138645 -0.914196
vn -0.250289 0.911605 0.326087
vn -0.250289 0.911605 0.326087
vn -0.250289 0.911605 0.326087
vn -0.250289 0.911605 0.326087
vn 0.743932 0.175740 0.644733
vn 0.743932 0.175740 0.644733
vn 0.743932 0.175740 0.644733
vn 0.743932 0.175740 0.644733
vn 0.044614 0.378361 -0.924582
vn 0.044614 0.378361 -0.924582
vn 0.044614 0.378361 -0.924582
vn 0.044614 0.378361 -0.924582
vn 0.696415 0.087587 -0.712274
vn 0.696415 0.087587 -0.712274
vn 0.696415 0.087587 -0.712274
vn 0.696415 0.087587 -0.712274
vn 0.201148 0.912769 0.355518
vn 0.201148 0.912769 0.355518
vn 0.201148 0.912769 0.355518
vn 0.201148 0.912769 0.355518
vn 0.062471 -0.818104 0.571667
vn 0.062471 -0.818104 0.571667
vn 0.062471 -0.818104 0.571667
vn 0.062471 -0.818104 0.571667
vn 0.653526 -0.744819 0.134713
vn 0.653526 -0.744819 0.134713
vn 0.653526 -0.744819 0.134713
vn 0.653526 -0.744819 0.134713
vn 0.719382 -0.677024 -0.155334
vn 0.719382 -0.677024 -0.155334
vn 0.719382 -0.677024 -0.155334
vn 0.719382 -0.677024 -0.155334
vn 0.381586 0.562991 -0.733098
vn 0.381586 0.562991 -0.733098
vn 0.381586 0.562991 -0.733098
vn 0.773717 -0.328783 0.541539
vn 0.773717 -0.328783 0.541539
vn 0.773717 -0.328783 0.541539
vn 0.729533 -0.682894 -0.037917
vn 0.729533 -0.682894 -0.037917
vn 0.729533 -0.682894 -0.037917
vn 0.729533 -0.682894 -0.037917
vn 0.720537 -0.692827 0.028591
vn 0.720537 -0.692827 0.028591
vn 0.720537 -0.692827 0.028591
vn 0.720537 -0.692827 0.028591
vn 0.054056 -0.705462 -0.706683
vn 0.054056 -0.705462 -0.706683
vn 0.054056 -0.705462 -0.706683
vn 0.054056 -0.705462 -0.706683
vn 0.042444 0.926416 0.374102
vn 0.042444 0.926416 0.374102
vn 0.042444 0.926416 0.374102
vn 0.042444 0.926416 0.374102
vn 0.435796 0.883654 0.170989
vn 0.435796 0.883654 0.170989
vn 0.435796 0.883654 0.170989
vn 0.435796 0.883654 0.170989
vn 0.543664 0.808626 0.224840
vn 0.543664 0.808626 0.224840
vn 0.543664 0.808626 0.224840
vn 0.543664 0.808627 0.224840
vn 0.581578 0.807654 0.097270
vn 0.581578 0.807654 0.097270
vn 0.581578 0.807654 0.097270
vn 0.581578 0.807654 0.097270
vn 0.449652 0.871268 -0.196734
vn 0.449652 0.871268 -0.196734
vn 0.449652 0.871268 -0.196734
vn 0.449652 0.871268 -0.196734
vn 0.069187 0.923951 -0.376203
vn 0.069187 0.923951 -0.376203
vn 0.069187 0.923950 -0.376203
vn 0.069187 0.923951 -0.376203
vn -0.836760 0.317599 0.446053
vn -0.836760 0.317599 0.446053
vn -0.836760 0.317599 0.446053
vn -0.836760 0.317599 0.446053
vn -0.806675 0.485552 0.336921
vn -0.806675 0.485552 0.336921
vn -0.806675 0.485552 0.336921
vn -0.806675 0.485552 0.336921
vn -0.857498 0.512375 -0.046577
vn -0.857498 0.512375 -0.046577
vn -0.857498 0.512375 -0.046577
vn -0.857498 0.512375 -0.046577
vn -0.879608 0.450328 0.153278
vn -0.879608 0.450328 0.153278
vn -0.879608 0.450328 0.153278
vn -0.879608 0.450328 0.153278
vn -0.846625 0.504408 0.169702
vn -0.846625 0.504408 0.169702
vn -0.846625 0.504408 0.169702
vn -0.846625 0.504408 0.169702
vn -0.099935 0.936831 0.335202
vn -0.099935 0.936831 0.335202
vn -0.099935 0.936831 0.335202
vn -0.099935 0.936831 0.335202
vn -0.167602 0.981895 -0.088270
vn -0.167602 0.981895 -0.088270
vn -0.167602 0.981895 -0.088270
vn -0.167602 0.981895 -0.088270
vn 0.154699 0.987954 0.003840
vn 0.154699 0.987954 0.003840
vn 0.154699 0.987954 0.003840
vn 0.154699 0.987954 0.003840
vn -0.144764 0.989380 0.013085
vn -0.144764 0.989380 0.013085
vn -0.144764 0.989380 0.013085
vn -0.144764 0.989380 0.013085
vn -0.201148 0.912769 0.355518
vn -0.201148 0.912769 0.355518
vn -0.201148 0.912769 0.355518
vn -0.201148 0.912769 0.355518
s 1
g ComputerMouse_mesh
usemtl ComputerMouse_mat1
f 1/1/1 2/2/2 17/3/3 13/4/4
s 2
f 3/5/5 4/6/6 15/7/7 16/8/8
s 3
f 4/6/9 5/9/10 14/10/11 15/7/12
s 4
f 5/9/13 1/1/14 13/4/15 14/10/16
s 5
f 2/2/17 1/1/18 11/11/19
f 4/6/20 3/5/21 11/11/19
f 5/9/22 4/6/20 11/11/19
f 1/1/18 5/9/22 11/11/19
s 7
f 6/12/23 7/13/24 12/14/25
f 8/15/26 9/16/27 12/14/25
f 9/16/27 10/17/28 12/14/25
f 10/17/28 6/12/23 12/14/25
s 4
f 14/10/16 13/4/15 6/12/29 10/17/30
s 3
f 15/7/12 14/10/11 10/17/31 9/16/32
s 2
f 16/8/8 15/7/7 9/16/33 8/15/34
s 1
f 13/4/4 17/3/3 7/13/35 6/12/36
s off
f 40/18/37 19/19/38 33/20/39 41/21/40
f 30/22/41 20/23/42 45/24/43 44/25/44
f 24/26/45 21/27/46 23/28/47 31/29/48
f 38/30/49 32/31/50 22/32/51 37/33/52
f 39/34/53 19/19/54 40/18/55
f 18/35/56 25/36/57 27/37/58 28/38/59
f 71/39/60 70/40/61 32/31/62
f 44/25/63 43/41/64 22/32/65 30/22/66
f 23/28/67 36/42/68 31/29/69
f 36/42/70 23/28/71 28/38/72 27/37/73
f 33/20/74 37/33/75 42/43/76 41/21/77
f 34/44/78 35/45/79 26/46/80 29/47/81
f 37/33/82 22/32/83 43/41/84 42/43/85
f 35/45/86 38/30/87 37/33/88 33/20/89
f 46/48/90 39/34/91 40/18/92 47/49/93
f 47/49/94 40/18/95 41/21/96 48/50/97
f 42/43/98 48/51/99 41/21/100
f 43/41/101 48/52/102 42/43/103
f 49/53/104 48/52/105 43/41/106 44/25/107
f 45/24/108 50/54/109 49/53/110 44/25/111
f 25/36/112 46/55/113 47/56/114 27/37/115
f 48/57/116 36/42/117 27/37/118 47/58/119
f 48/57/120 49/59/121 31/29/122 36/42/123
f 50/60/124 24/26/125 31/29/126 49/61/127
f 51/62/128 59/63/129 54/64/130 61/65/131
f 61/65/132 60/66/133 52/67/134 51/62/135
f 73/68/136 56/69/137 52/67/138 60/70/139
f 30/22/140 70/40/141 69/71/142 20/23/143
f 20/23/144 69/71/145 68/72/146 45/24/147
f 45/24/148 68/72/149 67/73/150 50/54/151
f 50/74/152 67/75/153 66/76/154 24/77/155
f 24/77/156 66/76/157 65/78/158 21/27/159
f 21/27/160 65/78/161 64/79/162 23/28/163
f 23/28/164 64/79/165 63/80/166 28/38/167
f 28/38/168 63/80/169 62/81/170 18/35/171
f 18/35/172 62/81/173 53/82/174 25/83/175
f 58/84/176 55/85/177 57/86/178 72/87/179
f 72/88/180 57/86/181 56/69/182 73/68/183
f 38/30/184 58/84/185 71/39/186 32/31/187
f 39/34/188 59/63/189 51/62/190 19/19/191
f 51/62/192 52/67/193 26/46/194 19/19/195
f 52/67/196 56/69/197 29/47/198 26/46/199
f 56/69/200 57/86/201 34/44/202 29/47/203
f 57/86/204 55/85/205 35/45/206 34/44/207
f 35/45/208 55/85/209 58/84/210 38/30/211
f 46/89/212 54/90/213 59/63/214 39/34/215
f 25/83/216 53/82/217 54/91/218 46/92/219
f 96/93/220 97/94/221 89/95/222 75/96/223
f 86/97/224 100/98/225 101/99/226 76/100/227
f 83/101/228 84/102/229 79/103/230 92/104/231
f 79/103/232 87/105/233 92/104/234
f 80/106/235 87/105/236 79/103/237 77/107/238
f 94/108/239 93/109/240 78/110/241 88/111/242
f 88/111/243 70/40/244 71/39/245
f 86/97/246 76/100/247 69/71/248 70/40/249
f 76/100/250 101/99/251 68/72/252 69/71/253
f 80/112/254 77/107/255 65/78/256 66/76/257
f 77/107/258 79/103/259 64/79/260 65/78/261
f 79/103/262 84/102/263 63/80/264 64/79/265
f 74/113/266 81/114/267 53/82/268 62/81/269
f 95/115/270 75/96/271 107/116/272 112/117/273
f 107/116/274 75/96/275 82/118/276 108/119/277
f 95/115/278 96/93/279 75/96/280
f 74/113/281 84/102/282 83/101/283 81/120/284
f 84/102/285 74/113/286 62/81/287 63/80/288
f 85/121/289 82/118/290 91/122/291 90/123/292
f 100/98/293 86/97/294 78/110/295 99/124/296
f 94/108/297 88/111/298 71/39/299 58/84/300
f 89/95/301 97/94/302 98/125/303 93/109/304
f 109/126/305 111/127/306 90/123/307 91/122/308
f 93/109/309 98/125/310 99/124/311 78/110/312
f 91/122/313 89/95/314 93/109/315 94/108/316
f 91/122/317 94/108/318 58/84/319 109/126/320
f 91/122/321 82/118/322 75/96/323 89/95/324
f 102/128/325 95/115/326 112/117/327 54/129/328
f 102/128/329 103/130/330 96/93/331 95/115/332
f 103/130/333 104/131/334 97/94/335 96/93/336
f 98/125/337 97/94/338 104/132/339
f 99/124/340 98/125/341 104/133/342
f 105/134/343 100/98/344 99/124/345 104/133/346
f 101/99/347 100/98/348 105/134/349 106/135/350
f 101/99/351 106/135/352 67/73/353 68/72/354
f 81/114/355 102/136/356 54/91/357 53/82/358
f 81/120/359 83/101/360 103/137/361 102/138/362
f 104/139/363 103/137/364 83/101/365 92/104/366
f 104/139/367 92/104/368 87/105/369 105/140/370
f 106/141/371 105/140/372 87/105/373 80/106/374
f 106/142/375 80/112/376 66/76/377 67/75/378
f 107/116/379 61/65/380 54/64/381 112/117/382
f 61/65/383 107/116/384 108/119/385 60/66/386
f 73/68/387 60/70/388 108/119/389 110/143/390
f 58/84/391 72/144/392 111/127/393 109/126/394
f 72/88/395 73/68/396 110/143/397 111/127/398
f 111/127/399 110/143/400 85/121/401 90/123/402
f 108/119/403 82/118/404 85/121/405 110/143/406
f 86/97/407 70/40/408 88/111/409 78/110/410
f 32/31/411 70/40/412 30/22/413 22/32/414
f 35/45/415 33/20/416 19/19/417 26/46/418
